# xmcd CD database file
#
# Track frame offsets:
#	150
#	12068
#	22422
#	33854
#	42812
#	52412
#	63798
#	74527
#	84939
#	95307
#	108051
#	119201
#	128017
#	139337
#	148778
#	160112
#
# Disc length: 2282 seconds
#
# Revision: 0
# Processed by: cddbd v1.5.2PL0 Copyright (c) Steve Scherf et al.
# Submitted via: CDex 1.70beta2
#
DISCID=de08e810
DTITLE=Patsy Cline - The Best Of Patsy Cline Vol
DYEAR=1900
DGENRE=Country
TTITLE0=Come On In
TTITLE1=Stop The World
TTITLE2=I'm Blue Again
TTITLE3=Yes, I Understand
TTITLE4=In Care Of The Blues
TTITLE5=Gotta Lot Of Rythm In My Soul
TTITLE6=I Love Honey
TTITLE7=Fingerprints
TTITLE8=There He Goes
TTITLE9=He'll Do For You (What He's Done For Me)
TTITLE10=I Can't Forget You
TTITLE11=To Day Tomorrow and Forever
TTITLE12=Crazy Dreams
TTITLE13=I Can See An Angel
TTITLE14=If I Could See The World
TTITLE15=Life's A Rail Road To Heaven
EXTD=
EXTT0=
EXTT1=
EXTT2=
EXTT3=
EXTT4=
EXTT5=
EXTT6=
EXTT7=
EXTT8=
EXTT9=
EXTT10=
EXTT11=
EXTT12=
EXTT13=
EXTT14=
EXTT15=
PLAYORDER=
